<?xml version="1.0" encoding="utf-8"?>
<!-- Generator: Adobe Illustrator 24.1.1, SVG Export Plug-In . SVG Version: 6.00 Build 0)  -->
<svg version="1.1" id="Laag_1" xmlns="http://www.w3.org/2000/svg" xmlns:xlink="http://www.w3.org/1999/xlink" x="0px" y="0px"
	 viewBox="0 0 90 85.9" style="enable-background:new 0 0 90 85.9;" xml:space="preserve">
<style type="text/css">
	.st0{fill:#FFFFFF;}
</style>
<path class="st0" d="M2.2,45.6H20c0.9,0,1.7-0.5,2-1.3l4.1-9.7l5.3,25c0.2,1,1.1,1.7,2.2,1.7c1.1,0,1.9-0.8,2.1-1.8l4.4-27.3l4.8,37
	c0.3,2.5,3.9,2.6,4.3,0.1l5.1-28.9l4.2,15.2c0.3,0.9,1.1,1.6,2.1,1.6c1,0,1.8-0.6,2.1-1.5L68.3,38l4.2,6.6c0.4,0.6,1.1,1,1.8,1h13.5
	c1.2,0,2.2-1,2.2-2.2s-1-2.2-2.2-2.2H75.5l-6.1-9.5c-0.5-0.7-1.3-1.1-2.1-1c-0.8,0.1-1.5,0.7-1.8,1.5l-4.6,14.9l-4.8-17.3
	c-0.3-1-1.1-1.6-2.2-1.6c-1,0-1.9,0.8-2,1.8l-4.3,24.4l-4.9-37.7c-0.1-1.1-1.1-1.9-2.1-1.9c-1.1,0-2,0.8-2.2,1.8l-4.9,30.5L29,26.8
	c-0.2-0.9-1-1.6-1.9-1.7c-0.9-0.1-1.8,0.4-2.2,1.3l-6.2,14.8H2.2c-1.2,0-2.2,1-2.2,2.2S1,45.6,2.2,45.6z"/>
</svg>
