<?xml version="1.0" encoding="utf-8"?>
<!-- Generator: Adobe Illustrator 24.1.1, SVG Export Plug-In . SVG Version: 6.00 Build 0)  -->
<svg version="1.1" id="Laag_1" xmlns="http://www.w3.org/2000/svg" xmlns:xlink="http://www.w3.org/1999/xlink" x="0px" y="0px"
	 viewBox="0 0 509.8 85.9" style="enable-background:new 0 0 509.8 85.9;" xml:space="preserve">
<style type="text/css">
	.st0{fill:#FFFFFF;}
</style>
<path class="st0" d="M78.4,0H33.2c-5.2,0-9.4,4.3-9.4,9.4v47c-2.3-1.4-5-2.1-8-2.1C7.1,54.3,0,61.4,0,70.1s7.1,15.8,15.8,15.8
	s15.8-7.1,15.8-15.8V27.5H80v17.2c-2.3-1.4-5-2.1-8-2.1c-8.7,0-15.8,7.1-15.8,15.8S63.3,74.1,72,74.1s15.8-7.1,15.8-15.8V9.5
	C87.8,4.3,83.6,0,78.4,0z M33.2,7.9h45.2c0.9,0,1.7,0.7,1.7,1.7v10.1H31.5V9.5C31.5,8.6,32.3,7.9,33.2,7.9z M15.8,77.9
	c-4.3,0-8-3.5-8-8c0-4.3,3.5-8,8-8s8,3.5,8,8C23.7,74.4,20.2,77.9,15.8,77.9z M72,66.2c-4.3,0-8-3.5-8-8s3.5-8,8-8s8,3.5,8,8
	S76.5,66.2,72,66.2z"/>
<g>
	<path class="st0" d="M130.4,46.3c0-2.5,0.4-4.7,1.3-6.8c0.9-2.1,2.2-4.1,4.1-6h1.1c-1.9,2-3.2,4-4.1,6.1c-0.9,2.1-1.4,4.3-1.4,6.7
		c0,2.3,0.5,4.4,1.4,6.5H132C130.9,50.8,130.4,48.7,130.4,46.3z"/>
	<path class="st0" d="M145.4,49.2h-1.1l3.1-14.7h-4.7l0.2-1h10.5l-0.2,1h-4.7L145.4,49.2z"/>
	<path class="st0" d="M160.2,49.2h-7.8l3.3-15.8h7.8l-0.2,1h-6.7l-1.3,6h6.4l-0.2,1h-6.3l-1.5,6.8h6.8L160.2,49.2z"/>
	<path class="st0" d="M174.3,49.2h-0.9l-5.6-13.8h-0.1c-0.2,1.1-0.3,2.1-0.5,2.9s-0.9,4.5-2.3,10.9h-1l3.3-15.8h0.9l5.6,13.9h0.1
		c0.2-1.3,0.4-2.8,0.8-4.5l2-9.5h1L174.3,49.2z"/>
	<path class="st0" d="M187.2,44.9c0,0.9-0.2,1.7-0.7,2.4c-0.5,0.7-1.1,1.2-1.9,1.6c-0.8,0.4-1.8,0.5-2.9,0.5c-0.6,0-1.3-0.1-1.9-0.2
		c-0.6-0.1-1.2-0.3-1.8-0.6v-1.2c1.2,0.7,2.4,1,3.8,1c1.4,0,2.4-0.3,3.2-0.9s1.2-1.5,1.2-2.5c0-0.4-0.1-0.8-0.2-1.1
		c-0.1-0.3-0.3-0.6-0.6-0.8c-0.3-0.3-0.6-0.5-1-0.7c-0.4-0.2-0.9-0.5-1.4-0.8c-1.1-0.5-1.8-1.1-2.3-1.8c-0.4-0.6-0.6-1.4-0.6-2.2
		s0.2-1.6,0.6-2.2s1-1.1,1.8-1.5s1.6-0.5,2.6-0.5c0.7,0,1.4,0.1,1.9,0.2s1.2,0.3,1.8,0.7l-0.3,1c-0.5-0.3-1-0.5-1.6-0.7
		s-1.2-0.2-1.8-0.2c-1.2,0-2.1,0.3-2.8,0.9c-0.7,0.6-1,1.4-1,2.4c0,0.7,0.2,1.4,0.5,1.8c0.4,0.5,1,1,2,1.4c1.1,0.6,1.9,1,2.3,1.4
		c0.4,0.4,0.7,0.8,1,1.2C187.1,43.7,187.2,44.2,187.2,44.9z"/>
	<path class="st0" d="M189.7,49.2l3.3-15.8h1.1l-3.3,15.8H189.7z"/>
	<path class="st0" d="M209.1,39.4c0,1.8-0.3,3.6-1,5.2c-0.7,1.6-1.6,2.8-2.7,3.6c-1.1,0.8-2.4,1.2-3.9,1.2c-1.8,0-3.2-0.5-4.1-1.6
		c-1-1.1-1.5-2.6-1.5-4.6c0-1.9,0.3-3.6,1-5.1c0.7-1.5,1.6-2.7,2.7-3.6s2.5-1.2,4-1.2c1.8,0,3.1,0.5,4.1,1.6
		C208.7,35.9,209.1,37.4,209.1,39.4z M203.5,34.2c-1.3,0-2.4,0.4-3.3,1.1c-1,0.7-1.7,1.8-2.3,3.2c-0.6,1.4-0.9,2.9-0.9,4.5
		c0,1.8,0.4,3.1,1.2,4c0.8,0.9,1.9,1.4,3.4,1.4c1.2,0,2.3-0.4,3.2-1.1s1.7-1.8,2.3-3.2s0.9-3,0.9-4.6c0-1.7-0.4-3-1.1-3.9
		C206.1,34.7,205,34.2,203.5,34.2z"/>
	<path class="st0" d="M221.3,49.2h-0.9l-5.6-13.8h-0.1c-0.2,1.1-0.3,2.1-0.5,2.9s-0.9,4.5-2.3,10.9h-1l3.3-15.8h0.9l5.6,13.9h0.1
		c0.2-1.3,0.4-2.8,0.8-4.5l2-9.5h1L221.3,49.2z"/>
	<path class="st0" d="M239,43.6h-5.5l-3.1,5.6h-1.3l8.9-15.8h0.7l2.2,15.8h-1.1L239,43.6z M238.9,42.6l-0.4-3.1
		c-0.2-1.7-0.4-3.2-0.4-4.3c-0.2,0.5-0.4,0.9-0.7,1.4c-0.2,0.5-1.3,2.5-3.3,6.1H238.9z"/>
	<path class="st0" d="M251.4,44.9c0,0.9-0.2,1.7-0.7,2.4c-0.5,0.7-1.1,1.2-1.9,1.6c-0.8,0.4-1.8,0.5-2.9,0.5c-0.6,0-1.3-0.1-1.9-0.2
		c-0.6-0.1-1.2-0.3-1.8-0.6v-1.2c1.2,0.7,2.4,1,3.8,1c1.4,0,2.4-0.3,3.2-0.9s1.2-1.5,1.2-2.5c0-0.4-0.1-0.8-0.2-1.1
		c-0.1-0.3-0.3-0.6-0.6-0.8c-0.3-0.3-0.6-0.5-1-0.7c-0.4-0.2-0.9-0.5-1.4-0.8c-1.1-0.5-1.8-1.1-2.3-1.8c-0.4-0.6-0.6-1.4-0.6-2.2
		s0.2-1.6,0.6-2.2s1-1.1,1.8-1.5s1.6-0.5,2.6-0.5c0.7,0,1.4,0.1,1.9,0.2s1.2,0.3,1.8,0.7l-0.3,1c-0.5-0.3-1-0.5-1.6-0.7
		s-1.2-0.2-1.8-0.2c-1.2,0-2.1,0.3-2.8,0.9c-0.7,0.6-1,1.4-1,2.4c0,0.7,0.2,1.4,0.5,1.8c0.4,0.5,1,1,2,1.4c1.1,0.6,1.9,1,2.3,1.4
		c0.4,0.4,0.7,0.8,1,1.2C251.3,43.7,251.4,44.2,251.4,44.9z"/>
	<path class="st0" d="M263.1,34.2c-1.4,0-2.7,0.4-3.8,1.1c-1.1,0.8-2,1.8-2.6,3.3c-0.7,1.4-1,3-1,4.8c0,1.6,0.4,2.9,1.2,3.7
		c0.8,0.9,1.9,1.3,3.4,1.3c1,0,2.1-0.2,3.3-0.5v1c-1.1,0.4-2.3,0.5-3.4,0.5c-1.8,0-3.2-0.5-4.2-1.6c-1-1-1.4-2.5-1.4-4.4
		c0-1.9,0.4-3.7,1.1-5.3s1.8-2.8,3.1-3.7s2.7-1.3,4.3-1.3c1.3,0,2.4,0.2,3.3,0.7l-0.5,1c-0.4-0.2-0.8-0.4-1.3-0.5
		C264.1,34.3,263.6,34.2,263.1,34.2z"/>
	<path class="st0" d="M274.3,49.2h-7.8l3.3-15.8h7.8l-0.2,1h-6.7l-1.3,6h6.4l-0.2,1h-6.3l-1.5,6.8h6.8L274.3,49.2z"/>
	<path class="st0" d="M288.4,49.2h-0.9l-5.6-13.8h-0.1c-0.2,1.1-0.3,2.1-0.5,2.9c-0.2,0.9-0.9,4.5-2.3,10.9h-1l3.3-15.8h0.9
		l5.6,13.9h0.1c0.2-1.3,0.4-2.8,0.8-4.5l2-9.5h1L288.4,49.2z"/>
	<path class="st0" d="M305.5,39.7c0,1.8-0.4,3.5-1.2,5c-0.8,1.5-1.9,2.6-3.2,3.4s-3,1.1-4.8,1.1h-3.6l3.3-15.8h3.3
		c2,0,3.6,0.5,4.6,1.6C305,36.1,305.5,37.7,305.5,39.7z M296.3,48.2c1.6,0,3-0.3,4.3-1c1.2-0.7,2.1-1.7,2.8-3c0.7-1.3,1-2.8,1-4.4
		c0-3.6-1.7-5.4-5.1-5.4H297l-3,13.8H296.3z"/>
	<path class="st0" d="M307.3,49.2l3.3-15.8h1.1l-3.3,15.8H307.3z"/>
	<path class="st0" d="M323.1,49.2h-0.9l-5.6-13.8h-0.1c-0.2,1.1-0.3,2.1-0.5,2.9c-0.2,0.9-0.9,4.5-2.3,10.9h-1l3.3-15.8h0.9
		l5.6,13.9h0.1c0.2-1.3,0.4-2.8,0.8-4.5l2-9.5h1L323.1,49.2z"/>
	<path class="st0" d="M335.6,41.3h4.4l-1.6,7.4c-1.5,0.5-3,0.8-4.4,0.8c-1.8,0-3.3-0.5-4.3-1.6c-1-1-1.5-2.6-1.5-4.5
		c0-1.9,0.4-3.6,1.1-5.2c0.8-1.6,1.8-2.8,3.1-3.6s2.7-1.3,4.3-1.3c0.8,0,1.5,0.1,2.2,0.2s1.3,0.3,2,0.6l-0.4,1
		c-0.8-0.3-1.5-0.6-2-0.7c-0.6-0.1-1.2-0.2-1.8-0.2c-1.3,0-2.5,0.4-3.7,1.2c-1.1,0.8-2,1.9-2.6,3.2c-0.6,1.4-1,2.9-1,4.7
		c0,1.6,0.4,2.9,1.2,3.8c0.8,0.9,2,1.3,3.5,1.3c1.1,0,2.2-0.2,3.3-0.5l1.3-5.7h-3.3L335.6,41.3z"/>
	<path class="st0" d="M355.6,43.6h-5.5l-3.1,5.6h-1.3l8.9-15.8h0.7l2.2,15.8h-1.1L355.6,43.6z M355.5,42.6l-0.4-3.1
		c-0.2-1.7-0.4-3.2-0.4-4.3c-0.2,0.5-0.4,0.9-0.7,1.4c-0.2,0.5-1.3,2.5-3.3,6.1H355.5z"/>
	<path class="st0" d="M366.7,47l7.9-13.5h1.6l-3.2,15.8h-1.1l2.1-9.7c0.6-2.7,0.9-4.3,1.1-4.8h-0.1l-8.4,14.5H366l-2.4-14.5h-0.1
		c-0.1,1.1-0.4,2.6-0.8,4.6l-2.1,9.9h-1l3.3-15.8h1.5L366.7,47L366.7,47z"/>
	<path class="st0" d="M380.8,33.4h4.1c1.4,0,2.4,0.3,3.1,0.9s1.1,1.5,1.1,2.6c0,1.1-0.3,2-1,2.7c-0.6,0.7-1.6,1.1-2.7,1.3v0
		c0.9,0.2,1.6,0.6,2,1.2c0.5,0.6,0.7,1.3,0.7,2.2c0,1.5-0.5,2.6-1.5,3.5c-1,0.9-2.4,1.3-4.2,1.3h-4.9L380.8,33.4z M380.2,41.4
		l-1.5,6.8h3.7c1.4,0,2.6-0.3,3.3-0.9s1.2-1.6,1.2-2.8c0-1-0.3-1.8-1-2.3c-0.6-0.5-1.6-0.8-3-0.8H380.2z M380.4,40.5h3
		c1.5,0,2.6-0.3,3.4-0.9c0.8-0.6,1.2-1.4,1.2-2.6c0-0.9-0.3-1.5-0.8-1.9c-0.6-0.4-1.4-0.7-2.5-0.7h-2.9L380.4,40.5z"/>
	<path class="st0" d="M390.4,49.2l3.3-15.8h1.1l-3.3,15.8H390.4z"/>
	<path class="st0" d="M403.7,49.2h-7.8l3.3-15.8h7.8l-0.2,1h-6.7l-1.3,6h6.4l-0.2,1h-6.3l-1.5,6.8h6.8L403.7,49.2z"/>
	<path class="st0" d="M417.8,49.2h-0.9l-5.6-13.8h-0.1c-0.2,1.1-0.3,2.1-0.5,2.9c-0.2,0.9-0.9,4.5-2.3,10.9h-1l3.3-15.8h0.9
		l5.6,13.9h0.1c0.2-1.3,0.4-2.8,0.8-4.5l2-9.5h1L417.8,49.2z"/>
	<path class="st0" d="M425.7,49.2h-1.1l3.1-14.7h-4.7l0.2-1h10.5l-0.2,1h-4.7L425.7,49.2z"/>
	<path class="st0" d="M445.7,47l7.9-13.5h1.6L452,49.2h-1.1l2.1-9.7c0.6-2.7,0.9-4.3,1.1-4.8h-0.1l-8.4,14.5H445l-2.4-14.5h-0.1
		c-0.1,1.1-0.4,2.6-0.8,4.6l-2.1,9.9h-1l3.3-15.8h1.5L445.7,47L445.7,47z"/>
	<path class="st0" d="M470.4,33.4L468.2,44c-0.4,1.9-1.1,3.3-2.1,4.2c-1,0.8-2.3,1.3-4,1.3c-3.2,0-4.7-1.4-4.7-4.3
		c0-0.6,0.1-1.3,0.3-2.2l2-9.5h1.1l-2.1,9.7c-0.1,0.6-0.2,1.3-0.2,2c0,2.2,1.2,3.3,3.7,3.3c1.4,0,2.5-0.3,3.3-1
		c0.8-0.7,1.4-1.8,1.7-3.4l2.2-10.5H470.4z"/>
	<path class="st0" d="M479.8,44.9c0,0.9-0.2,1.7-0.7,2.4c-0.5,0.7-1.1,1.2-1.9,1.6c-0.8,0.4-1.8,0.5-2.9,0.5c-0.6,0-1.3-0.1-1.9-0.2
		s-1.2-0.3-1.8-0.6v-1.2c1.2,0.7,2.4,1,3.8,1c1.4,0,2.4-0.3,3.2-0.9c0.8-0.6,1.2-1.5,1.2-2.5c0-0.4-0.1-0.8-0.2-1.1
		s-0.3-0.6-0.6-0.8c-0.3-0.3-0.6-0.5-1-0.7c-0.4-0.2-0.9-0.5-1.4-0.8c-1.1-0.5-1.8-1.1-2.3-1.8c-0.4-0.6-0.6-1.4-0.6-2.2
		s0.2-1.6,0.6-2.2s1-1.1,1.8-1.5c0.8-0.4,1.6-0.5,2.6-0.5c0.7,0,1.4,0.1,1.9,0.2s1.2,0.3,1.8,0.7l-0.3,1c-0.5-0.3-1-0.5-1.6-0.7
		c-0.6-0.2-1.2-0.2-1.8-0.2c-1.2,0-2.1,0.3-2.8,0.9c-0.7,0.6-1,1.4-1,2.4c0,0.7,0.2,1.4,0.5,1.8c0.4,0.5,1,1,2,1.4
		c1.1,0.6,1.9,1,2.3,1.4c0.4,0.4,0.7,0.8,1,1.2C479.7,43.7,479.8,44.2,479.8,44.9z"/>
	<path class="st0" d="M482.2,49.2l3.3-15.8h1.1l-3.3,15.8H482.2z"/>
	<path class="st0" d="M496.9,34.2c-1.4,0-2.7,0.4-3.8,1.1c-1.1,0.8-2,1.8-2.6,3.3c-0.7,1.4-1,3-1,4.8c0,1.6,0.4,2.9,1.2,3.7
		s1.9,1.3,3.4,1.3c1,0,2.1-0.2,3.3-0.5v1c-1.1,0.4-2.3,0.5-3.4,0.5c-1.8,0-3.2-0.5-4.2-1.6c-1-1-1.4-2.5-1.4-4.4
		c0-1.9,0.4-3.7,1.1-5.3c0.8-1.6,1.8-2.8,3.1-3.7c1.3-0.9,2.7-1.3,4.3-1.3c1.3,0,2.4,0.2,3.3,0.7l-0.5,1c-0.4-0.2-0.8-0.4-1.3-0.5
		S497.4,34.2,496.9,34.2z"/>
	<path class="st0" d="M509.8,39.8c0,2.5-0.4,4.8-1.3,6.9s-2.3,4.1-4.1,6h-1.1c1.8-2,3.2-4,4.1-6.1c0.9-2.1,1.4-4.3,1.4-6.7
		c0-1.1-0.1-2.1-0.3-3.2c-0.2-1-0.6-2.1-1.1-3.3h0.9C509.2,35.3,509.8,37.5,509.8,39.8z"/>
</g>
</svg>
