<svg id="Laag_1" data-name="Laag 1" xmlns="http://www.w3.org/2000/svg" viewBox="0 0 384.8 85.9"><defs><style>.cls-1{fill:#fff;}</style></defs><path class="cls-1" d="M78.4,0H33.2a9.45,9.45,0,0,0-9.4,9.4v47a15.16,15.16,0,0,0-8-2.1A15.8,15.8,0,1,0,31.6,70.1V27.5H80V44.7a15.16,15.16,0,0,0-8-2.1A15.75,15.75,0,1,0,87.8,58.3V9.5A9.47,9.47,0,0,0,78.4,0ZM33.2,7.9H78.4a1.69,1.69,0,0,1,1.7,1.7V19.7H31.5V9.5A1.67,1.67,0,0,1,33.2,7.9Zm-17.4,70a8,8,0,1,1,0-16,7.9,7.9,0,0,1,8,8A8,8,0,0,1,15.8,77.9ZM72,66.2a8,8,0,0,1-8-8,8,8,0,1,1,8,8Z"/><path class="cls-1" d="M131.18,42.36a10.74,10.74,0,0,1,.55-3.5A8.72,8.72,0,0,1,133.3,36h1.77a10.15,10.15,0,0,0-1.51,3,11.47,11.47,0,0,0-.5,3.35,10.7,10.7,0,0,0,.52,3.34,9.9,9.9,0,0,0,1.47,2.92H133.3a8.45,8.45,0,0,1-1.58-2.8A10.73,10.73,0,0,1,131.18,42.36Z"/><path class="cls-1" d="M144.53,46.31h-2.19V37.82h-2.8V36h7.79v1.82h-2.8Z"/><path class="cls-1" d="M154.85,46.31h-5.94V36h5.94v1.79H151.1v2.27h3.49v1.79H151.1v2.66h3.75Z"/><path class="cls-1" d="M166.16,46.31h-2.78l-4.49-7.8h-.06c.09,1.38.13,2.36.13,3v4.85h-2V36h2.75l4.48,7.72h0c-.07-1.34-.1-2.28-.1-2.84V36h2Z"/><path class="cls-1" d="M174.84,43.45a2.67,2.67,0,0,1-1,2.2,4.33,4.33,0,0,1-2.79.8,6.47,6.47,0,0,1-2.92-.62v-2a12.31,12.31,0,0,0,1.76.66,5.19,5.19,0,0,0,1.33.19,1.83,1.83,0,0,0,1.1-.28.91.91,0,0,0,.38-.81.89.89,0,0,0-.16-.54,2.05,2.05,0,0,0-.5-.46,14.72,14.72,0,0,0-1.34-.7,6.35,6.35,0,0,1-1.42-.85,3.28,3.28,0,0,1-.75-.95,2.73,2.73,0,0,1-.28-1.27,2.67,2.67,0,0,1,.92-2.15,3.84,3.84,0,0,1,2.57-.79,6.35,6.35,0,0,1,1.53.19,10.84,10.84,0,0,1,1.53.54l-.71,1.7a9.7,9.7,0,0,0-1.36-.47,4.35,4.35,0,0,0-1.06-.14,1.4,1.4,0,0,0-.95.29.94.94,0,0,0-.34.76.92.92,0,0,0,.14.5,1.66,1.66,0,0,0,.42.42,15.61,15.61,0,0,0,1.39.72,5.38,5.38,0,0,1,2,1.39A2.68,2.68,0,0,1,174.84,43.45Z"/><path class="cls-1" d="M176.71,46.31V36h2.19V46.31Z"/><path class="cls-1" d="M190.85,41.14a5.59,5.59,0,0,1-1.27,3.94,5.52,5.52,0,0,1-7.28,0A5.65,5.65,0,0,1,181,41.13a5.52,5.52,0,0,1,1.28-3.93A4.72,4.72,0,0,1,186,35.84a4.66,4.66,0,0,1,3.63,1.37A5.59,5.59,0,0,1,190.85,41.14Zm-7.52,0a4.31,4.31,0,0,0,.65,2.61,2.3,2.3,0,0,0,2,.87q2.63,0,2.62-3.48T186,37.66a2.3,2.3,0,0,0-2,.88A4.28,4.28,0,0,0,183.33,41.14Z"/><path class="cls-1" d="M202.14,46.31h-2.78l-4.49-7.8h-.06c.09,1.38.13,2.36.13,3v4.85H193V36h2.76l4.48,7.72h.05c-.07-1.34-.11-2.28-.11-2.84V36h2Z"/><path class="cls-1" d="M210.67,42.36v4h-2.18V36h3a5.14,5.14,0,0,1,3.11.77,3,3,0,0,1,.51,3.94,3.34,3.34,0,0,1-1.42,1.11q2.34,3.48,3,4.49H214.3l-2.46-4Zm0-1.78h.71a2.7,2.7,0,0,0,1.53-.35,1.22,1.22,0,0,0,.49-1.08,1.13,1.13,0,0,0-.5-1,3.15,3.15,0,0,0-1.56-.31h-.67Z"/><path class="cls-1" d="M218,46.31V36h2.19V46.31Z"/><path class="cls-1" d="M228.9,43.45a2.67,2.67,0,0,1-1,2.2,4.34,4.34,0,0,1-2.8.8,6.5,6.5,0,0,1-2.92-.62v-2a12.83,12.83,0,0,0,1.77.66,5.06,5.06,0,0,0,1.32.19,1.86,1.86,0,0,0,1.11-.28.94.94,0,0,0,.38-.81.89.89,0,0,0-.17-.54,1.88,1.88,0,0,0-.5-.46,12.89,12.89,0,0,0-1.33-.7,6.13,6.13,0,0,1-1.42-.85,3.16,3.16,0,0,1-.76-.95,2.86,2.86,0,0,1-.28-1.27,2.65,2.65,0,0,1,.93-2.15,3.81,3.81,0,0,1,2.56-.79,6.43,6.43,0,0,1,1.54.19,11.3,11.3,0,0,1,1.53.54l-.71,1.7a9.7,9.7,0,0,0-1.36-.47,4.43,4.43,0,0,0-1.07-.14,1.42,1.42,0,0,0-1,.29,1,1,0,0,0-.33.76.91.91,0,0,0,.13.5,1.72,1.72,0,0,0,.43.42,15.61,15.61,0,0,0,1.39.72,5.47,5.47,0,0,1,2,1.39A2.68,2.68,0,0,1,228.9,43.45Z"/><path class="cls-1" d="M230.76,46.31V36H233V46.31Z"/><path class="cls-1" d="M244.7,46.31h-2.78l-4.49-7.8h-.06c.09,1.38.13,2.36.13,3v4.85h-1.95V36h2.76l4.48,7.72h0c-.07-1.34-.1-2.28-.1-2.84V36h2Z"/><path class="cls-1" d="M251.21,40.52h4.09v5.35a10.51,10.51,0,0,1-1.87.45,11.92,11.92,0,0,1-1.8.13,4.5,4.5,0,0,1-3.56-1.37,5.66,5.66,0,0,1-1.24-3.94,5.2,5.2,0,0,1,1.43-3.89,5.44,5.44,0,0,1,4-1.4,7.61,7.61,0,0,1,3.07.64l-.73,1.75a5.15,5.15,0,0,0-2.35-.57,2.91,2.91,0,0,0-2.27.95,3.71,3.71,0,0,0-.86,2.57,4.11,4.11,0,0,0,.69,2.56,2.38,2.38,0,0,0,2,.88,6.62,6.62,0,0,0,1.39-.14V42.34h-1.95Z"/><path class="cls-1" d="M267.82,46.31l-.75-2.45h-3.76l-.75,2.45h-2.35L263.85,36h2.67l3.66,10.35ZM266.55,42l-1.17-3.77c-.08-.29-.15-.52-.18-.69-.16.6-.6,2.09-1.34,4.46Z"/><path class="cls-1" d="M275.84,46.31l-2.48-8.09h-.07c.09,1.65.14,2.75.14,3.3v4.79h-2V36h3l2.44,7.89h0L279.52,36h3V46.31h-2V41.43c0-.23,0-.49,0-.79s0-1.11.1-2.4h-.07l-2.66,8.07Z"/><path class="cls-1" d="M285.1,36h3.21a6.24,6.24,0,0,1,3.18.62,2.18,2.18,0,0,1,1,2,2.51,2.51,0,0,1-.43,1.52,1.76,1.76,0,0,1-1.16.71v.07a2.29,2.29,0,0,1,1.42.82,2.65,2.65,0,0,1,.43,1.59,2.62,2.62,0,0,1-1,2.2,4.39,4.39,0,0,1-2.77.79H285.1Zm2.18,4.08h1.27a2.36,2.36,0,0,0,1.29-.27,1,1,0,0,0,.4-.91.91.91,0,0,0-.44-.85,2.76,2.76,0,0,0-1.37-.26h-1.15Zm0,1.74v2.69h1.43a2.11,2.11,0,0,0,1.33-.35,1.26,1.26,0,0,0,.43-1.06c0-.85-.61-1.28-1.83-1.28Z"/><path class="cls-1" d="M294.8,46.31V36H297V46.31Z"/><path class="cls-1" d="M305.52,46.31h-5.93V36h5.93v1.79h-3.75v2.27h3.49v1.79h-3.49v2.66h3.75Z"/><path class="cls-1" d="M316.83,46.31h-2.78l-4.49-7.8h-.06c.09,1.38.13,2.36.13,3v4.85h-1.95V36h2.75l4.48,7.72h0c-.07-1.34-.1-2.28-.1-2.84V36h2Z"/><path class="cls-1" d="M323.4,46.31h-2.19V37.82h-2.8V36h7.79v1.82h-2.8Z"/><path class="cls-1" d="M335.91,46.31l-2.49-8.09h-.06c.09,1.65.13,2.75.13,3.3v4.79h-1.95V36h3L337,43.89h0L339.59,36h3V46.31h-2V41.43c0-.23,0-.49,0-.79s0-1.11.09-2.4h-.06l-2.66,8.07Z"/><path class="cls-1" d="M353.56,36v6.67a3.88,3.88,0,0,1-.51,2A3.46,3.46,0,0,1,351.57,46a5.41,5.41,0,0,1-2.29.45,4.39,4.39,0,0,1-3.09-1,3.63,3.63,0,0,1-1.1-2.79V36h2.18v6.31a2.63,2.63,0,0,0,.48,1.75,2,2,0,0,0,1.59.56,2,2,0,0,0,1.55-.56,2.61,2.61,0,0,0,.49-1.76V36Z"/><path class="cls-1" d="M362.17,43.45a2.65,2.65,0,0,1-1,2.2,4.33,4.33,0,0,1-2.79.8,6.47,6.47,0,0,1-2.92-.62v-2a12.31,12.31,0,0,0,1.76.66,5.19,5.19,0,0,0,1.33.19,1.83,1.83,0,0,0,1.1-.28.92.92,0,0,0,.39-.81.89.89,0,0,0-.17-.54,2.05,2.05,0,0,0-.5-.46,14.72,14.72,0,0,0-1.34-.7A6.35,6.35,0,0,1,356.6,41a3.28,3.28,0,0,1-.75-.95,2.73,2.73,0,0,1-.28-1.27,2.65,2.65,0,0,1,.93-2.15,3.79,3.79,0,0,1,2.56-.79,6.29,6.29,0,0,1,1.53.19,10.84,10.84,0,0,1,1.53.54l-.7,1.7a9.76,9.76,0,0,0-1.37-.47,4.35,4.35,0,0,0-1.06-.14A1.4,1.4,0,0,0,358,38a1,1,0,0,0-.34.76.92.92,0,0,0,.14.5,1.57,1.57,0,0,0,.43.42,13.61,13.61,0,0,0,1.38.72,5.3,5.3,0,0,1,2,1.39A2.68,2.68,0,0,1,362.17,43.45Z"/><path class="cls-1" d="M364,46.31V36h2.19V46.31Z"/><path class="cls-1" d="M373.2,37.67a2.23,2.23,0,0,0-1.91.93,4.33,4.33,0,0,0-.68,2.59c0,2.29.87,3.44,2.59,3.44a8.19,8.19,0,0,0,2.63-.54v1.84a7.32,7.32,0,0,1-2.83.52,4.31,4.31,0,0,1-3.44-1.36,5.76,5.76,0,0,1-1.2-3.92,6.43,6.43,0,0,1,.59-2.82,4.25,4.25,0,0,1,1.68-1.85,5,5,0,0,1,2.57-.65,6.87,6.87,0,0,1,3,.73l-.7,1.78a9.61,9.61,0,0,0-1.17-.48A3.38,3.38,0,0,0,373.2,37.67Z"/><path class="cls-1" d="M384.8,42.36a10.44,10.44,0,0,1-.55,3.45,8.28,8.28,0,0,1-1.57,2.79h-1.75a10.48,10.48,0,0,0,1.47-2.91,10.76,10.76,0,0,0,.52-3.35,11.47,11.47,0,0,0-.5-3.35,10.15,10.15,0,0,0-1.51-3h1.77a8.79,8.79,0,0,1,1.58,2.87A11,11,0,0,1,384.8,42.36Z"/></svg>