<?xml version="1.0" encoding="utf-8"?>
<!-- Generator: Adobe Illustrator 24.1.1, SVG Export Plug-In . SVG Version: 6.00 Build 0)  -->
<svg version="1.1" id="Laag_1" xmlns="http://www.w3.org/2000/svg" xmlns:xlink="http://www.w3.org/1999/xlink" x="0px" y="0px"
	 viewBox="0 0 90 85.9" style="enable-background:new 0 0 90 85.9;" xml:space="preserve">
<style type="text/css">
	.st0{fill:#FFFFFF;}
</style>
<path class="st0" d="M79.5,0H34.3c-5.2,0-9.4,4.3-9.4,9.4v47c-2.3-1.4-5-2.1-8-2.1c-8.7,0-15.8,7.1-15.8,15.8s7.1,15.8,15.8,15.8
	s15.8-7.1,15.8-15.8V27.5h48.4v17.2c-2.3-1.4-5-2.1-8-2.1c-8.7,0-15.8,7.1-15.8,15.8s7.1,15.7,15.8,15.7s15.8-7.1,15.8-15.8V9.5
	C88.9,4.3,84.7,0,79.5,0z M34.3,7.9h45.2c0.9,0,1.7,0.7,1.7,1.7v10.1H32.6V9.5C32.6,8.6,33.3,7.9,34.3,7.9z M16.9,77.9
	c-4.3,0-8-3.5-8-8c0-4.3,3.5-8,8-8s8,3.5,8,8C24.8,74.4,21.2,77.9,16.9,77.9z M73.1,66.2c-4.3,0-8-3.5-8-8s3.5-8,8-8s8,3.5,8,8
	S77.5,66.2,73.1,66.2z"/>
</svg>
