<?xml version="1.0" encoding="utf-8"?>
<!-- Generator: Adobe Illustrator 24.1.1, SVG Export Plug-In . SVG Version: 6.00 Build 0)  -->
<svg version="1.1" id="Laag_1" xmlns="http://www.w3.org/2000/svg" xmlns:xlink="http://www.w3.org/1999/xlink" x="0px" y="0px"
	 viewBox="0 0 591 85.9" style="enable-background:new 0 0 591 85.9;" xml:space="preserve">
<style type="text/css">
	.st0{fill:#FFFFFF;}
</style>
<path class="st0" d="M78.4,0H33.2c-5.2,0-9.4,4.3-9.4,9.4v47c-2.3-1.4-5-2.1-8-2.1C7.1,54.3,0,61.4,0,70.1s7.1,15.8,15.8,15.8
	s15.8-7.1,15.8-15.8V27.5H80v17.2c-2.3-1.4-5-2.1-8-2.1c-8.7,0-15.8,7.1-15.8,15.8S63.3,74.1,72,74.1s15.8-7.1,15.8-15.8V9.5
	C87.8,4.3,83.6,0,78.4,0z M33.2,7.9h45.2c0.9,0,1.7,0.7,1.7,1.7v10.1H31.5V9.5C31.5,8.6,32.3,7.9,33.2,7.9z M15.8,77.9
	c-4.3,0-8-3.5-8-8c0-4.3,3.5-8,8-8s8,3.5,8,8C23.7,74.4,20.2,77.9,15.8,77.9z M72,66.2c-4.3,0-8-3.5-8-8s3.5-8,8-8s8,3.5,8,8
	S76.5,66.2,72,66.2z"/>
<g>
	<path class="st0" d="M130.4,47c0-3,0.5-5.8,1.6-8.3s2.7-5,5-7.3h1.4c-2.3,2.4-3.9,4.9-5,7.4c-1.1,2.5-1.6,5.2-1.6,8.1
		c0,2.8,0.6,5.4,1.7,7.9h-1C131,52.5,130.4,49.9,130.4,47z"/>
	<path class="st0" d="M148.6,50.5h-1.3l3.8-17.9h-5.7l0.3-1.2h12.7l-0.2,1.2h-5.8L148.6,50.5z"/>
	<path class="st0" d="M166.6,50.5h-9.5l4.1-19.1h9.5l-0.3,1.2h-8.2l-1.5,7.2h7.7l-0.3,1.2h-7.7l-1.8,8.2h8.2L166.6,50.5z"/>
	<path class="st0" d="M183.7,50.5h-1.1l-6.8-16.8h-0.1c-0.2,1.3-0.4,2.5-0.6,3.6c-0.2,1.1-1.2,5.5-2.8,13.2h-1.2l4.1-19.1h1
		l6.8,16.9h0.1c0.2-1.5,0.5-3.3,1-5.4l2.5-11.5h1.2L183.7,50.5z"/>
	<path class="st0" d="M199.4,45.3c0,1.1-0.3,2.1-0.9,2.9s-1.4,1.5-2.3,1.9c-1,0.4-2.2,0.7-3.5,0.7c-0.8,0-1.5-0.1-2.3-0.2
		c-0.7-0.1-1.5-0.4-2.2-0.8v-1.4c1.4,0.8,2.9,1.2,4.6,1.2c1.6,0,2.9-0.4,3.9-1.1c0.9-0.8,1.4-1.8,1.4-3c0-0.5-0.1-1-0.2-1.4
		s-0.4-0.7-0.7-1c-0.3-0.3-0.7-0.6-1.2-0.9c-0.5-0.3-1.1-0.6-1.7-1c-1.3-0.7-2.2-1.4-2.7-2.1c-0.5-0.8-0.8-1.7-0.8-2.7
		s0.3-1.9,0.8-2.7c0.5-0.8,1.2-1.4,2.2-1.8c0.9-0.4,2-0.6,3.1-0.6c0.9,0,1.6,0.1,2.4,0.2c0.7,0.2,1.4,0.4,2.2,0.8l-0.4,1.2
		c-0.6-0.3-1.2-0.6-2-0.8s-1.5-0.3-2.2-0.3c-1.4,0-2.6,0.4-3.4,1.1S192,35,192,36.2c0,0.9,0.2,1.6,0.6,2.2c0.4,0.6,1.2,1.2,2.4,1.7
		c1.3,0.7,2.3,1.3,2.8,1.7c0.5,0.4,0.9,0.9,1.2,1.5C199.3,43.9,199.4,44.5,199.4,45.3z"/>
	<path class="st0" d="M202.4,50.5l4.1-19.1h1.3l-4,19.1H202.4z"/>
	<path class="st0" d="M226,38.6c0,2.2-0.4,4.3-1.2,6.3c-0.8,2-1.9,3.5-3.3,4.4s-3,1.5-4.8,1.5c-2.2,0-3.9-0.6-5-1.9
		c-1.2-1.3-1.8-3.2-1.8-5.6c0-2.3,0.4-4.4,1.2-6.2s1.9-3.3,3.3-4.3s3-1.5,4.9-1.5c2.2,0,3.8,0.6,5,1.9C225.4,34.4,226,36.2,226,38.6
		z M219.1,32.4c-1.5,0-2.9,0.4-4,1.3s-2.1,2.2-2.8,3.9s-1,3.5-1,5.5c0,2.1,0.5,3.8,1.4,4.9s2.3,1.7,4.2,1.7c1.5,0,2.8-0.4,3.9-1.3
		c1.1-0.9,2.1-2.2,2.7-3.9s1-3.6,1-5.6c0-2.1-0.5-3.7-1.4-4.8C222.3,32.9,220.9,32.4,219.1,32.4z"/>
	<path class="st0" d="M240.8,50.5h-1.1l-6.8-16.8h-0.1c-0.2,1.3-0.4,2.5-0.6,3.6c-0.2,1.1-1.2,5.5-2.8,13.2h-1.2l4.1-19.1h1
		l6.8,16.9h0.1c0.2-1.5,0.5-3.3,1-5.4l2.5-11.5h1.2L240.8,50.5z"/>
	<path class="st0" d="M262.2,43.7h-6.7l-3.8,6.8h-1.5L261,31.3h0.9l2.6,19.2h-1.4L262.2,43.7z M262.1,42.5l-0.5-3.8
		c-0.3-2.1-0.4-3.9-0.5-5.3c-0.3,0.5-0.5,1.1-0.8,1.7c-0.3,0.6-1.6,3-4,7.4H262.1z"/>
	<path class="st0" d="M277.3,45.3c0,1.1-0.3,2.1-0.9,2.9c-0.6,0.9-1.4,1.5-2.3,1.9c-1,0.4-2.2,0.7-3.5,0.7c-0.8,0-1.5-0.1-2.3-0.2
		c-0.7-0.1-1.5-0.4-2.2-0.8v-1.4c1.4,0.8,2.9,1.2,4.6,1.2c1.6,0,2.9-0.4,3.9-1.1c0.9-0.8,1.4-1.8,1.4-3c0-0.5-0.1-1-0.2-1.4
		c-0.1-0.4-0.4-0.7-0.7-1s-0.7-0.6-1.2-0.9c-0.5-0.3-1.1-0.6-1.7-1c-1.3-0.7-2.2-1.4-2.7-2.1c-0.5-0.8-0.8-1.7-0.8-2.7
		s0.3-1.9,0.8-2.7c0.5-0.8,1.2-1.4,2.2-1.8c0.9-0.4,2-0.6,3.1-0.6c0.9,0,1.6,0.1,2.4,0.2c0.7,0.2,1.4,0.4,2.2,0.8l-0.4,1.2
		c-0.6-0.3-1.2-0.6-2-0.8c-0.7-0.2-1.5-0.3-2.2-0.3c-1.4,0-2.6,0.4-3.4,1.1c-0.8,0.7-1.3,1.7-1.3,2.9c0,0.9,0.2,1.6,0.6,2.2
		s1.2,1.2,2.4,1.7c1.3,0.7,2.3,1.3,2.8,1.7c0.5,0.4,0.9,0.9,1.2,1.5C277.2,43.9,277.3,44.5,277.3,45.3z"/>
	<path class="st0" d="M291.5,32.4c-1.7,0-3.3,0.5-4.6,1.4c-1.3,0.9-2.4,2.2-3.2,4c-0.8,1.7-1.2,3.7-1.2,5.8c0,2,0.5,3.5,1.4,4.5
		c1,1.1,2.3,1.6,4.2,1.6c1.2,0,2.5-0.2,4-0.7v1.2c-1.4,0.4-2.7,0.6-4.1,0.6c-2.2,0-3.9-0.6-5.1-1.9c-1.2-1.3-1.8-3.1-1.8-5.4
		c0-2.3,0.5-4.4,1.4-6.4c0.9-1.9,2.2-3.4,3.7-4.5c1.6-1,3.3-1.6,5.3-1.6c1.5,0,2.9,0.3,4,0.9l-0.6,1.2c-0.5-0.3-1-0.5-1.6-0.6
		S292.1,32.4,291.5,32.4z"/>
	<path class="st0" d="M305.1,50.5h-9.5l4.1-19.1h9.5l-0.3,1.2h-8.2l-1.5,7.2h7.7l-0.3,1.2h-7.7l-1.8,8.2h8.2L305.1,50.5z"/>
	<path class="st0" d="M322.2,50.5H321l-6.8-16.8h-0.1c-0.2,1.3-0.4,2.5-0.6,3.6c-0.2,1.1-1.2,5.5-2.8,13.2h-1.2l4.1-19.1h1l6.8,16.9
		h0.1c0.2-1.5,0.5-3.3,1-5.4l2.5-11.5h1.2L322.2,50.5z"/>
	<path class="st0" d="M343,39c0,2.2-0.5,4.2-1.4,6c-1,1.8-2.3,3.2-3.9,4.1s-3.6,1.4-5.8,1.4h-4.3l4.1-19.1h4c2.5,0,4.3,0.6,5.6,1.9
		S343,36.5,343,39z M331.8,49.4c2,0,3.7-0.4,5.2-1.2c1.5-0.8,2.6-2,3.4-3.6c0.8-1.6,1.2-3.4,1.2-5.4c0-4.3-2.1-6.5-6.2-6.5h-2.7
		L329,49.4H331.8z"/>
	<path class="st0" d="M345.1,50.5l4.1-19.1h1.3l-4,19.1H345.1z"/>
	<path class="st0" d="M364.4,50.5h-1.1l-6.8-16.8h-0.1c-0.2,1.3-0.4,2.5-0.6,3.6s-1.2,5.5-2.8,13.2h-1.2l4.1-19.1h1l6.8,16.9h0.1
		c0.2-1.5,0.5-3.3,1-5.4l2.5-11.5h1.2L364.4,50.5z"/>
	<path class="st0" d="M379.5,40.9h5.3l-2,8.9c-1.8,0.6-3.6,1-5.3,1c-2.2,0-4-0.6-5.2-1.9c-1.2-1.3-1.8-3.1-1.8-5.5
		c0-2.3,0.5-4.4,1.4-6.3c0.9-1.9,2.2-3.4,3.7-4.4c1.6-1,3.3-1.5,5.2-1.5c1,0,1.9,0.1,2.7,0.2c0.8,0.2,1.6,0.4,2.4,0.8l-0.5,1.2
		c-1-0.4-1.8-0.7-2.5-0.8c-0.7-0.1-1.4-0.2-2.2-0.2c-1.6,0-3.1,0.5-4.4,1.4c-1.4,0.9-2.4,2.3-3.2,3.9c-0.8,1.7-1.2,3.6-1.2,5.7
		c0,2,0.5,3.5,1.5,4.6c1,1.1,2.4,1.6,4.3,1.6c1.4,0,2.7-0.2,4-0.6l1.5-6.9h-4L379.5,40.9z"/>
	<path class="st0" d="M403.8,43.7h-6.7l-3.8,6.8h-1.5l10.8-19.2h0.9l2.6,19.2h-1.4L403.8,43.7z M403.7,42.5l-0.5-3.8
		c-0.3-2.1-0.4-3.9-0.5-5.3c-0.3,0.5-0.5,1.1-0.8,1.7c-0.3,0.6-1.6,3-4,7.4H403.7z"/>
	<path class="st0" d="M417.2,47.9l9.6-16.4h2l-3.9,19.1h-1.3l2.5-11.8c0.7-3.2,1.1-5.2,1.3-5.8h-0.1l-10.2,17.6h-0.7l-2.9-17.6h-0.1
		c-0.2,1.3-0.5,3.2-1,5.6l-2.6,12.1h-1.3l4-19.1h1.9L417.2,47.9L417.2,47.9z"/>
	<path class="st0" d="M434.4,31.4h5c1.7,0,2.9,0.4,3.8,1.1c0.9,0.7,1.3,1.8,1.3,3.2c0,1.3-0.4,2.4-1.2,3.3c-0.8,0.8-1.9,1.4-3.3,1.6
		v0.1c1.1,0.3,1.9,0.8,2.5,1.5c0.6,0.7,0.8,1.6,0.8,2.7c0,1.8-0.6,3.2-1.8,4.2c-1.2,1-2.9,1.6-5.1,1.6h-6L434.4,31.4z M433.7,41.1
		l-1.8,8.3h4.5c1.8,0,3.1-0.4,4-1.1c0.9-0.8,1.4-1.9,1.4-3.4c0-1.3-0.4-2.2-1.2-2.8c-0.8-0.6-2-0.9-3.6-0.9H433.7z M433.9,39.9h3.6
		c1.8,0,3.2-0.4,4.1-1.1c0.9-0.7,1.4-1.7,1.4-3.1c0-1-0.3-1.8-1-2.4s-1.7-0.8-3-0.8h-3.6L433.9,39.9z"/>
	<path class="st0" d="M446,50.5l4.1-19.1h1.3l-4,19.1H446z"/>
	<path class="st0" d="M462.2,50.5h-9.5l4.1-19.1h9.5l-0.3,1.2h-8.2l-1.5,7.2h7.7l-0.3,1.2H456l-1.8,8.2h8.2L462.2,50.5z"/>
	<path class="st0" d="M479.3,50.5h-1.1l-6.8-16.8h-0.1c-0.2,1.3-0.4,2.5-0.6,3.6s-1.2,5.5-2.8,13.2h-1.2l4.1-19.1h1l6.8,16.9h0.1
		c0.2-1.5,0.5-3.3,1-5.4l2.5-11.5h1.2L479.3,50.5z"/>
	<path class="st0" d="M489,50.5h-1.3l3.8-17.9h-5.7l0.3-1.2h12.7l-0.2,1.2h-5.8L489,50.5z"/>
	<path class="st0" d="M513.2,47.9l9.6-16.4h2l-3.9,19.1h-1.3l2.5-11.8c0.7-3.2,1.1-5.2,1.3-5.8h-0.1L513,50.5h-0.7l-2.9-17.6h-0.1
		c-0.2,1.3-0.5,3.2-1,5.6l-2.6,12.1h-1.3l4-19.1h1.9L513.2,47.9L513.2,47.9z"/>
	<path class="st0" d="M543.2,31.4l-2.7,12.8c-0.5,2.4-1.4,4-2.6,5.1c-1.2,1-2.8,1.5-4.9,1.5c-3.8,0-5.8-1.7-5.8-5.2
		c0-0.7,0.1-1.6,0.4-2.6l2.4-11.5h1.3l-2.5,11.8c-0.2,0.8-0.3,1.6-0.3,2.4c0,2.7,1.5,4,4.5,4c1.7,0,3-0.4,4-1.3
		c1-0.8,1.7-2.2,2.1-4.2l2.7-12.8H543.2z"/>
	<path class="st0" d="M554.5,45.3c0,1.1-0.3,2.1-0.9,2.9c-0.6,0.9-1.4,1.5-2.3,1.9c-1,0.4-2.2,0.7-3.5,0.7c-0.8,0-1.5-0.1-2.3-0.2
		c-0.7-0.1-1.5-0.4-2.2-0.8v-1.4c1.4,0.8,2.9,1.2,4.6,1.2c1.6,0,2.9-0.4,3.9-1.1c0.9-0.8,1.4-1.8,1.4-3c0-0.5-0.1-1-0.2-1.4
		s-0.4-0.7-0.7-1s-0.7-0.6-1.2-0.9c-0.5-0.3-1.1-0.6-1.7-1c-1.3-0.7-2.2-1.4-2.7-2.1c-0.5-0.8-0.8-1.7-0.8-2.7s0.3-1.9,0.8-2.7
		c0.5-0.8,1.2-1.4,2.2-1.8c0.9-0.4,2-0.6,3.1-0.6c0.9,0,1.6,0.1,2.4,0.2s1.4,0.4,2.2,0.8l-0.4,1.2c-0.6-0.3-1.2-0.6-2-0.8
		c-0.7-0.2-1.5-0.3-2.2-0.3c-1.4,0-2.6,0.4-3.4,1.1c-0.8,0.7-1.3,1.7-1.3,2.9c0,0.9,0.2,1.6,0.6,2.2c0.4,0.6,1.2,1.2,2.4,1.7
		c1.3,0.7,2.3,1.3,2.8,1.7c0.5,0.4,0.9,0.9,1.2,1.5C554.4,43.9,554.5,44.5,554.5,45.3z"/>
	<path class="st0" d="M557.5,50.5l4.1-19.1h1.3l-4,19.1H557.5z"/>
	<path class="st0" d="M575.4,32.4c-1.7,0-3.3,0.5-4.6,1.4s-2.4,2.2-3.2,4c-0.8,1.7-1.2,3.7-1.2,5.8c0,2,0.5,3.5,1.4,4.5
		c1,1.1,2.3,1.6,4.2,1.6c1.2,0,2.5-0.2,4-0.7v1.2c-1.4,0.4-2.7,0.6-4.1,0.6c-2.2,0-3.9-0.6-5.1-1.9c-1.2-1.3-1.8-3.1-1.8-5.4
		c0-2.3,0.5-4.4,1.4-6.4c0.9-1.9,2.2-3.4,3.7-4.5c1.6-1,3.3-1.6,5.3-1.6c1.5,0,2.9,0.3,4,0.9l-0.6,1.2c-0.5-0.3-1-0.5-1.6-0.6
		C576.5,32.4,575.9,32.4,575.4,32.4z"/>
	<path class="st0" d="M591,39.2c0,3-0.5,5.8-1.6,8.3c-1.1,2.5-2.7,5-5,7.3H583c2.2-2.4,3.9-4.9,5-7.4c1.1-2.6,1.7-5.3,1.7-8.1
		c0-1.3-0.1-2.6-0.4-3.8c-0.2-1.3-0.7-2.6-1.3-4h1C590.3,33.7,591,36.3,591,39.2z"/>
</g>
</svg>
