<?xml version="1.0" encoding="utf-8"?>
<!-- Generator: Adobe Illustrator 24.1.1, SVG Export Plug-In . SVG Version: 6.00 Build 0)  -->
<svg version="1.1" id="Laag_1" xmlns="http://www.w3.org/2000/svg" xmlns:xlink="http://www.w3.org/1999/xlink" x="0px" y="0px"
	 viewBox="0 0 90 85.9" style="enable-background:new 0 0 90 85.9;" xml:space="preserve">
<style type="text/css">
	.st0{fill:#FFFFFF;}
</style>
<g>
	<g>
		<path class="st0" d="M45.4,72.8V61.5c0-0.8,0.5-1.6,1.3-1.8c2.2-0.7,3.7-2.8,3.7-5.1v-5.4c0-3-2.4-5.4-5.4-5.4s-5.4,2.4-5.4,5.4
			v5.4c0,2.3,1.5,4.4,3.7,5.1c0.8,0.3,1.3,1,1.3,1.8v11.3H45.4z"/>
		<path class="st0" d="M69.7,76.7h-3H47.3h-4.6H23.3h-3c-0.7,0-1.3,0.6-1.3,1.3v4.1H71V78C71,77.3,70.4,76.7,69.7,76.7z"/>
		<path class="st0" d="M69.7,72.8h-1.3c-1.3-10.9-2.6-21.7-3.9-32.6L64,35.9c-0.4-2.7-3.2-4.9-6.6-4.9H32.5c-3.3,0-6.2,2.2-6.5,4.9
			l-0.6,4.6c-1.3,10.8-2.6,21.5-3.9,32.3h-1.3c-2.8,0-5.1,2.3-5.1,5.1v6c0,1.1,0.9,1.9,1.9,1.9h55.9c1.1,0,1.9-0.9,1.9-1.9v-6
			C74.8,75.1,72.6,72.8,69.7,72.8z M29.3,41l0.6-4.6c0.1-0.6,1.2-1.6,2.7-1.6h24.9c1.6,0,2.7,0.9,2.8,1.5l0.5,4.2
			c1.3,10.7,2.6,21.5,3.9,32.2H49.2v-10c3-1.6,5-4.7,5-8.2v-5.4c0-5.1-4.1-9.2-9.2-9.2s-9.2,4.1-9.2,9.2v5.4c0,3.4,2,6.6,5,8.2v10
			H25.4C26.7,62.2,28,51.6,29.3,41z M43.3,59.7c-2.2-0.7-3.7-2.8-3.7-5.1v-5.4c0-3,2.4-5.4,5.4-5.4s5.4,2.4,5.4,5.4v5.4
			c0,2.3-1.5,4.4-3.7,5.1c-0.8,0.3-1.3,1-1.3,1.8v11.3h-0.8V61.5C44.6,60.7,44.1,60,43.3,59.7z"/>
		<path class="st0" d="M45,20.3c1.1,0,1.9-0.9,1.9-1.9V1.9C46.9,0.9,46,0,45,0c-1.1,0-1.9,0.9-1.9,1.9v16.5
			C43.1,19.5,43.9,20.3,45,20.3z"/>
		<path class="st0" d="M25.8,26.5c0.4,0.4,0.9,0.6,1.4,0.6c0.5,0,1-0.2,1.4-0.6c0.7-0.7,0.7-2,0-2.7L16.9,12.1c-0.7-0.7-2-0.7-2.7,0
			c-0.7,0.7-0.7,2,0,2.7L25.8,26.5z"/>
		<path class="st0" d="M20.3,43.6c0-1.1-0.9-1.9-1.9-1.9H1.9c-1.1,0-1.9,0.9-1.9,1.9s0.9,1.9,1.9,1.9h16.5
			C19.5,45.5,20.3,44.6,20.3,43.6z"/>
		<path class="st0" d="M62.8,27.1c0.5,0,1-0.2,1.4-0.6l11.7-11.7c0.7-0.7,0.8-2,0-2.7c-0.7-0.7-2-0.8-2.7,0L61.4,23.8
			c-0.7,0.7-0.8,2,0,2.7C61.8,26.9,62.3,27.1,62.8,27.1z"/>
		<path class="st0" d="M88.1,41.6H71.6c-1.1,0-1.9,0.9-1.9,1.9c0,1.1,0.9,1.9,1.9,1.9h16.5c1.1,0,1.9-0.9,1.9-1.9
			C90,42.5,89.1,41.6,88.1,41.6z"/>
	</g>
</g>
</svg>
