<svg xmlns="http://www.w3.org/2000/svg" xmlns:xlink="http://www.w3.org/1999/xlink" version="1.1" x="0px" y="0px" viewBox="0 0 160 200" style="enable-background:new 0 0 160 160;" xml:space="preserve"><g><rect x="50.4" y="14.1" transform="matrix(0.9213 -0.3888 0.3888 0.9213 -4.5398 22.8225)" width="7.5" height="17.1"/><rect x="76.2" y="8.9" width="7.5" height="17.1"/><rect x="97.3" y="18.9" transform="matrix(0.3887 -0.9214 0.9214 0.3887 43.8725 111.3826)" width="17.1" height="7.5"/><rect x="118.5" y="33.1" transform="matrix(0.7066 -0.7076 0.7076 0.7066 11.1543 100.688)" width="17.1" height="7.5"/><rect x="132.7" y="54.3" transform="matrix(0.921 -0.3896 0.3896 0.921 -11.4545 59.6075)" width="17.1" height="7.5"/><rect x="29.3" y="28.4" transform="matrix(0.7076 -0.7067 0.7067 0.7076 -16.4198 34.1082)" width="7.5" height="17.1"/><rect x="15" y="49.5" transform="matrix(0.3896 -0.921 0.921 0.3896 -42.0121 52.7069)" width="7.5" height="17.1"/><rect x="5" y="80.2" width="17.1" height="7.5"/><rect x="137.9" y="80.2" width="17.1" height="7.5"/><path d="M135,118h-8.8V84c0-6.2-1.2-12.3-3.6-18c-2.3-5.5-5.7-10.5-9.9-14.7c-4.2-4.2-9.2-7.6-14.7-9.9c-5.7-2.4-11.8-3.6-18-3.6   c-6.2,0-12.3,1.2-18,3.6c-5.5,2.3-10.4,5.7-14.7,9.9c-4.2,4.2-7.6,9.2-9.9,14.7c-2.4,5.7-3.6,11.8-3.6,18V118H25   c-2.1,0-3.7,1.7-3.7,3.7v25.6c0,2.1,1.7,3.7,3.7,3.7h110c2.1,0,3.7-1.7,3.7-3.7v-25.6C138.7,119.7,137.1,118,135,118z M41.3,84   c0-5.2,1-10.3,3-15.1c2-4.6,4.7-8.8,8.3-12.3c3.6-3.6,7.7-6.4,12.3-8.3c9.5-4,20.6-4,30.1,0c4.6,2,8.8,4.7,12.3,8.3   c3.6,3.6,6.4,7.7,8.3,12.3c2,4.8,3,9.9,3,15.1V118h-35v-16.4l21.4,7.5c0.4,0.1,0.8,0.2,1.2,0.2c0.8,0,1.5-0.2,2.2-0.7   c1-0.7,1.6-1.8,1.6-3.1V75.7c0-1.2-0.6-2.4-1.6-3.1c-1-0.7-2.3-0.9-3.4-0.5l-21.4,7.5v-4h-7.5v4l-21.4-7.5   c-1.1-0.4-2.4-0.2-3.4,0.5c-1,0.7-1.6,1.8-1.6,3.1v29.9c0,1.2,0.6,2.4,1.6,3.1c0.6,0.5,1.4,0.7,2.2,0.7c0.4,0,0.8-0.1,1.2-0.2   l21.4-7.5V118h-35V84z M83.7,87.6l18.9-6.6v19.3l-18.9-6.6V87.6z M76.2,93.7l-18.9,6.6V81l18.9,6.6V93.7z M131.2,143.6H28.8v-18.1   h102.5V143.6z"/></g><text x="0" y="175" fill="#000000" font-size="5px" font-weight="bold" font-family="'Helvetica Neue', Helvetica, Arial-Unicode, Arial, Sans-serif">Created by Symbolon</text><text x="0" y="180" fill="#000000" font-size="5px" font-weight="bold" font-family="'Helvetica Neue', Helvetica, Arial-Unicode, Arial, Sans-serif">from the Noun Project</text></svg>